G04 #@! TF.FileFunction,Legend,Top*
%FSLAX46Y46*%
G04 Gerber Fmt 4.6, Leading zero omitted, Abs format (unit mm)*
G04 Created by KiCad (PCBNEW (2015-05-13 BZR 5653)-product) date Saturday, May 30, 2015 'PMt' 01:17:27 PM*
%MOMM*%
G01*
G04 APERTURE LIST*
%ADD10C,0.100000*%
%ADD11C,0.150000*%
G04 APERTURE END LIST*
D10*
D11*
X180789580Y-110548420D02*
X179890420Y-110548420D01*
X179890420Y-110548420D02*
X179890420Y-110149640D01*
X180789580Y-110149640D02*
X179890420Y-110149640D01*
X180789580Y-110548420D02*
X180789580Y-110149640D01*
X180789580Y-111846360D02*
X179890420Y-111846360D01*
X179890420Y-111846360D02*
X179890420Y-111447580D01*
X180789580Y-111447580D02*
X179890420Y-111447580D01*
X180789580Y-111846360D02*
X180789580Y-111447580D01*
X180789580Y-110998000D02*
X180639720Y-110998000D01*
X180639720Y-110998000D02*
X180639720Y-110698280D01*
X180789580Y-110698280D02*
X180639720Y-110698280D01*
X180789580Y-110998000D02*
X180789580Y-110698280D01*
X180040280Y-110998000D02*
X179890420Y-110998000D01*
X179890420Y-110998000D02*
X179890420Y-110698280D01*
X180040280Y-110698280D02*
X179890420Y-110698280D01*
X180040280Y-110998000D02*
X180040280Y-110698280D01*
X180489860Y-110998000D02*
X180190140Y-110998000D01*
X180190140Y-110998000D02*
X180190140Y-110698280D01*
X180489860Y-110698280D02*
X180190140Y-110698280D01*
X180489860Y-110998000D02*
X180489860Y-110698280D01*
X180738780Y-110548420D02*
X180738780Y-111447580D01*
X179941220Y-110548420D02*
X179941220Y-111447580D01*
X181160420Y-111447580D02*
X182059580Y-111447580D01*
X182059580Y-111447580D02*
X182059580Y-111846360D01*
X181160420Y-111846360D02*
X182059580Y-111846360D01*
X181160420Y-111447580D02*
X181160420Y-111846360D01*
X181160420Y-110149640D02*
X182059580Y-110149640D01*
X182059580Y-110149640D02*
X182059580Y-110548420D01*
X181160420Y-110548420D02*
X182059580Y-110548420D01*
X181160420Y-110149640D02*
X181160420Y-110548420D01*
X181160420Y-110998000D02*
X181310280Y-110998000D01*
X181310280Y-110998000D02*
X181310280Y-111297720D01*
X181160420Y-111297720D02*
X181310280Y-111297720D01*
X181160420Y-110998000D02*
X181160420Y-111297720D01*
X181909720Y-110998000D02*
X182059580Y-110998000D01*
X182059580Y-110998000D02*
X182059580Y-111297720D01*
X181909720Y-111297720D02*
X182059580Y-111297720D01*
X181909720Y-110998000D02*
X181909720Y-111297720D01*
X181460140Y-110998000D02*
X181759860Y-110998000D01*
X181759860Y-110998000D02*
X181759860Y-111297720D01*
X181460140Y-111297720D02*
X181759860Y-111297720D01*
X181460140Y-110998000D02*
X181460140Y-111297720D01*
X181211220Y-111447580D02*
X181211220Y-110548420D01*
X182008780Y-111447580D02*
X182008780Y-110548420D01*
X182059580Y-107754420D02*
X181160420Y-107754420D01*
X181160420Y-107754420D02*
X181160420Y-107355640D01*
X182059580Y-107355640D02*
X181160420Y-107355640D01*
X182059580Y-107754420D02*
X182059580Y-107355640D01*
X182059580Y-109052360D02*
X181160420Y-109052360D01*
X181160420Y-109052360D02*
X181160420Y-108653580D01*
X182059580Y-108653580D02*
X181160420Y-108653580D01*
X182059580Y-109052360D02*
X182059580Y-108653580D01*
X182059580Y-108204000D02*
X181909720Y-108204000D01*
X181909720Y-108204000D02*
X181909720Y-107904280D01*
X182059580Y-107904280D02*
X181909720Y-107904280D01*
X182059580Y-108204000D02*
X182059580Y-107904280D01*
X181310280Y-108204000D02*
X181160420Y-108204000D01*
X181160420Y-108204000D02*
X181160420Y-107904280D01*
X181310280Y-107904280D02*
X181160420Y-107904280D01*
X181310280Y-108204000D02*
X181310280Y-107904280D01*
X181759860Y-108204000D02*
X181460140Y-108204000D01*
X181460140Y-108204000D02*
X181460140Y-107904280D01*
X181759860Y-107904280D02*
X181460140Y-107904280D01*
X181759860Y-108204000D02*
X181759860Y-107904280D01*
X182008780Y-107754420D02*
X182008780Y-108653580D01*
X181211220Y-107754420D02*
X181211220Y-108653580D01*
X180789580Y-107754420D02*
X179890420Y-107754420D01*
X179890420Y-107754420D02*
X179890420Y-107355640D01*
X180789580Y-107355640D02*
X179890420Y-107355640D01*
X180789580Y-107754420D02*
X180789580Y-107355640D01*
X180789580Y-109052360D02*
X179890420Y-109052360D01*
X179890420Y-109052360D02*
X179890420Y-108653580D01*
X180789580Y-108653580D02*
X179890420Y-108653580D01*
X180789580Y-109052360D02*
X180789580Y-108653580D01*
X180789580Y-108204000D02*
X180639720Y-108204000D01*
X180639720Y-108204000D02*
X180639720Y-107904280D01*
X180789580Y-107904280D02*
X180639720Y-107904280D01*
X180789580Y-108204000D02*
X180789580Y-107904280D01*
X180040280Y-108204000D02*
X179890420Y-108204000D01*
X179890420Y-108204000D02*
X179890420Y-107904280D01*
X180040280Y-107904280D02*
X179890420Y-107904280D01*
X180040280Y-108204000D02*
X180040280Y-107904280D01*
X180489860Y-108204000D02*
X180190140Y-108204000D01*
X180190140Y-108204000D02*
X180190140Y-107904280D01*
X180489860Y-107904280D02*
X180190140Y-107904280D01*
X180489860Y-108204000D02*
X180489860Y-107904280D01*
X180738780Y-107754420D02*
X180738780Y-108653580D01*
X179941220Y-107754420D02*
X179941220Y-108653580D01*
X182430420Y-108653580D02*
X183329580Y-108653580D01*
X183329580Y-108653580D02*
X183329580Y-109052360D01*
X182430420Y-109052360D02*
X183329580Y-109052360D01*
X182430420Y-108653580D02*
X182430420Y-109052360D01*
X182430420Y-107355640D02*
X183329580Y-107355640D01*
X183329580Y-107355640D02*
X183329580Y-107754420D01*
X182430420Y-107754420D02*
X183329580Y-107754420D01*
X182430420Y-107355640D02*
X182430420Y-107754420D01*
X182430420Y-108204000D02*
X182580280Y-108204000D01*
X182580280Y-108204000D02*
X182580280Y-108503720D01*
X182430420Y-108503720D02*
X182580280Y-108503720D01*
X182430420Y-108204000D02*
X182430420Y-108503720D01*
X183179720Y-108204000D02*
X183329580Y-108204000D01*
X183329580Y-108204000D02*
X183329580Y-108503720D01*
X183179720Y-108503720D02*
X183329580Y-108503720D01*
X183179720Y-108204000D02*
X183179720Y-108503720D01*
X182730140Y-108204000D02*
X183029860Y-108204000D01*
X183029860Y-108204000D02*
X183029860Y-108503720D01*
X182730140Y-108503720D02*
X183029860Y-108503720D01*
X182730140Y-108204000D02*
X182730140Y-108503720D01*
X182481220Y-108653580D02*
X182481220Y-107754420D01*
X183278780Y-108653580D02*
X183278780Y-107754420D01*
X182430420Y-111447580D02*
X183329580Y-111447580D01*
X183329580Y-111447580D02*
X183329580Y-111846360D01*
X182430420Y-111846360D02*
X183329580Y-111846360D01*
X182430420Y-111447580D02*
X182430420Y-111846360D01*
X182430420Y-110149640D02*
X183329580Y-110149640D01*
X183329580Y-110149640D02*
X183329580Y-110548420D01*
X182430420Y-110548420D02*
X183329580Y-110548420D01*
X182430420Y-110149640D02*
X182430420Y-110548420D01*
X182430420Y-110998000D02*
X182580280Y-110998000D01*
X182580280Y-110998000D02*
X182580280Y-111297720D01*
X182430420Y-111297720D02*
X182580280Y-111297720D01*
X182430420Y-110998000D02*
X182430420Y-111297720D01*
X183179720Y-110998000D02*
X183329580Y-110998000D01*
X183329580Y-110998000D02*
X183329580Y-111297720D01*
X183179720Y-111297720D02*
X183329580Y-111297720D01*
X183179720Y-110998000D02*
X183179720Y-111297720D01*
X182730140Y-110998000D02*
X183029860Y-110998000D01*
X183029860Y-110998000D02*
X183029860Y-111297720D01*
X182730140Y-111297720D02*
X183029860Y-111297720D01*
X182730140Y-110998000D02*
X182730140Y-111297720D01*
X182481220Y-111447580D02*
X182481220Y-110548420D01*
X183278780Y-111447580D02*
X183278780Y-110548420D01*
X183358000Y-105511000D02*
X183358000Y-107061000D01*
X184658000Y-105511000D02*
X183358000Y-105511000D01*
X188849000Y-106934000D02*
X194691000Y-106934000D01*
X194691000Y-106934000D02*
X194691000Y-107188000D01*
X194691000Y-107188000D02*
X188849000Y-107188000D01*
X188849000Y-107188000D02*
X188849000Y-107061000D01*
X188849000Y-107061000D02*
X194691000Y-107061000D01*
X186182000Y-106807000D02*
X185801000Y-106807000D01*
X186182000Y-107315000D02*
X185801000Y-107315000D01*
X186182000Y-109347000D02*
X185801000Y-109347000D01*
X186182000Y-109855000D02*
X185801000Y-109855000D01*
X186182000Y-111887000D02*
X185801000Y-111887000D01*
X186182000Y-112395000D02*
X185801000Y-112395000D01*
X188722000Y-108331000D02*
X188722000Y-105791000D01*
X194818000Y-107315000D02*
X188722000Y-107315000D01*
X194818000Y-106807000D02*
X194818000Y-107315000D01*
X188722000Y-106807000D02*
X194818000Y-106807000D01*
X186182000Y-108331000D02*
X188722000Y-108331000D01*
X186182000Y-105791000D02*
X186182000Y-108331000D01*
X186182000Y-105791000D02*
X188722000Y-105791000D01*
X186182000Y-110871000D02*
X188722000Y-110871000D01*
X186182000Y-110871000D02*
X186182000Y-113411000D01*
X188722000Y-111887000D02*
X194818000Y-111887000D01*
X194818000Y-111887000D02*
X194818000Y-112395000D01*
X194818000Y-112395000D02*
X188722000Y-112395000D01*
X188722000Y-113411000D02*
X188722000Y-110871000D01*
X188722000Y-110871000D02*
X188722000Y-108331000D01*
X194818000Y-109855000D02*
X188722000Y-109855000D01*
X194818000Y-109347000D02*
X194818000Y-109855000D01*
X188722000Y-109347000D02*
X194818000Y-109347000D01*
X186182000Y-110871000D02*
X188722000Y-110871000D01*
X186182000Y-108331000D02*
X186182000Y-110871000D01*
X186182000Y-108331000D02*
X188722000Y-108331000D01*
X186182000Y-113411000D02*
X188722000Y-113411000D01*
M02*
