G04 #@! TF.FileFunction,Copper,L1,Top,Signal*
%FSLAX46Y46*%
G04 Gerber Fmt 4.6, Leading zero omitted, Abs format (unit mm)*
G04 Created by KiCad (PCBNEW (2015-04-20 BZR 5616)-product) date Thursday, May 14, 2015 'PMt' 08:43:43 PM*
%MOMM*%
G01*
G04 APERTURE LIST*
%ADD10C,0.100000*%
%ADD11R,0.797560X0.797560*%
%ADD12R,1.778000X1.397000*%
%ADD13R,1.651000X1.524000*%
%ADD14C,0.685800*%
%ADD15C,0.152400*%
G04 APERTURE END LIST*
D10*
D11*
X180340000Y-111747300D03*
X180340000Y-110248700D03*
X181610000Y-110248700D03*
X181610000Y-111747300D03*
X181610000Y-108953300D03*
X181610000Y-107454700D03*
X180340000Y-108953300D03*
X180340000Y-107454700D03*
X182880000Y-107454700D03*
X182880000Y-108953300D03*
X182880000Y-110248700D03*
X182880000Y-111747300D03*
D12*
X184531000Y-107124500D03*
D13*
X184594500Y-109601000D03*
D12*
X184531000Y-112077500D03*
D14*
X183769000Y-110871000D03*
X180975000Y-110109000D03*
X181610000Y-108458000D03*
D15*
X181610000Y-111747300D02*
X180340000Y-111747300D01*
X181610000Y-111747300D02*
X182237700Y-111747300D01*
X182237700Y-111198000D02*
X182237700Y-111747300D01*
X182316100Y-111119600D02*
X182237700Y-111198000D01*
X183153000Y-111119600D02*
X182316100Y-111119600D01*
X183507700Y-110764900D02*
X183153000Y-111119600D01*
X183662900Y-110764900D02*
X183507700Y-110764900D01*
X183769000Y-110871000D02*
X183662900Y-110764900D01*
X183193900Y-108082400D02*
X182880000Y-108082400D01*
X183507700Y-108396200D02*
X183193900Y-108082400D01*
X183507700Y-110764900D02*
X183507700Y-108396200D01*
X182880000Y-107454700D02*
X182880000Y-107746700D01*
X182880000Y-107746700D02*
X182880000Y-108082400D01*
X182529700Y-107746700D02*
X182237700Y-107454700D01*
X182880000Y-107746700D02*
X182529700Y-107746700D01*
X181610000Y-107454700D02*
X182237700Y-107454700D01*
X182880000Y-110248700D02*
X181610000Y-110248700D01*
X181610000Y-110248700D02*
X181296200Y-110248700D01*
X180975000Y-110109000D02*
X180975000Y-110248700D01*
X181296200Y-110248700D02*
X180975000Y-110248700D01*
X180975000Y-110248700D02*
X180340000Y-110248700D01*
X180026100Y-108082400D02*
X180340000Y-108082400D01*
X179712300Y-108396200D02*
X180026100Y-108082400D01*
X179712300Y-109464100D02*
X179712300Y-108396200D01*
X179869200Y-109621000D02*
X179712300Y-109464100D01*
X180340000Y-109621000D02*
X179869200Y-109621000D01*
X180340000Y-110248700D02*
X180340000Y-109621000D01*
X180340000Y-107454700D02*
X180340000Y-108082400D01*
X180340000Y-108953300D02*
X180967700Y-108953300D01*
X181610000Y-108953300D02*
X180967700Y-108953300D01*
X182880000Y-108953300D02*
X182252300Y-108953300D01*
X181610000Y-108953300D02*
X182252300Y-108953300D01*
X182252200Y-112375100D02*
X182880000Y-111747300D01*
X179841500Y-112375100D02*
X182252200Y-112375100D01*
X179389900Y-111923500D02*
X179841500Y-112375100D01*
X179389900Y-107283400D02*
X179389900Y-111923500D01*
X179846400Y-106826900D02*
X179389900Y-107283400D01*
X180842600Y-106826900D02*
X179846400Y-106826900D01*
X180982200Y-106966500D02*
X180842600Y-106826900D01*
X180982200Y-108041800D02*
X180982200Y-106966500D01*
X181398400Y-108458000D02*
X180982200Y-108041800D01*
X181610000Y-108458000D02*
X181398400Y-108458000D01*
X181610000Y-108458000D02*
X181610000Y-108953300D01*
M02*
